<svg width="200" height="32" viewBox="0 0 200 32" fill="none" xmlns="http://www.w3.org/2000/svg">
<g clip-path="url(#clip0_1252_956)">
<path d="M47.1077 20.3006C45.9998 20.3006 44.9745 20.1929 44.0315 19.9776C43.0884 19.7623 42.2676 19.4536 41.5677 19.0522C40.8681 18.6508 40.3239 18.1516 39.9352 17.554C39.5461 16.9568 39.3518 16.2666 39.3518 15.483V15.2478C39.3518 15.1698 39.3615 15.1007 39.3812 15.0418H43.6089V15.3063C43.6279 15.7763 43.8029 16.1582 44.1339 16.4519C44.4641 16.7456 44.9015 16.9564 45.4458 17.0836C45.9897 17.2111 46.5634 17.2745 47.1661 17.2745C47.7294 17.2745 48.2785 17.2355 48.8135 17.1571C49.3477 17.0791 49.7948 16.9219 50.1549 16.6871C50.5141 16.4519 50.6943 16.1391 50.6943 15.7471C50.6943 15.258 50.4802 14.8952 50.0529 14.66C49.6251 14.4248 49.0369 14.2391 48.289 14.1018C47.5407 13.9649 46.7001 13.8081 45.7671 13.6318C44.9894 13.4949 44.2459 13.319 43.5368 13.1029C42.8268 12.8876 42.1906 12.6085 41.6269 12.2656C41.0629 11.9232 40.6162 11.4824 40.2856 10.9437C39.955 10.4055 39.7901 9.73477 39.7901 8.93124C39.7901 8.08952 39.9743 7.36439 40.344 6.75706C40.7129 6.15015 41.2379 5.65088 41.9184 5.25887C42.5986 4.86766 43.4005 4.57842 44.3238 4.39237C45.2466 4.20631 46.2433 4.11328 47.3121 4.11328C48.3035 4.11328 49.2364 4.20631 50.1109 4.39237C50.9858 4.57842 51.7438 4.85263 52.3852 5.21499C53.0267 5.57776 53.5371 6.03315 53.9161 6.58116C54.2951 7.12958 54.4846 7.74665 54.4846 8.43197V8.75493C54.4846 8.85324 54.4745 8.93124 54.4551 8.99014H50.2274V8.78459C50.2274 8.41288 50.0964 8.10902 49.8339 7.87381C49.5715 7.63859 49.2118 7.45782 48.755 7.33026C48.2983 7.20311 47.7786 7.13933 47.1952 7.13933C46.9037 7.13933 46.5731 7.15924 46.2038 7.19824C45.8344 7.23764 45.4793 7.30629 45.1394 7.4042C44.7991 7.50251 44.527 7.63941 44.3229 7.81531C44.1185 7.99161 44.0169 8.21707 44.0169 8.49128C44.0169 8.8439 44.2012 9.12298 44.5709 9.32853C44.9398 9.53409 45.4309 9.69577 46.0433 9.81317C46.6557 9.93058 47.3214 10.0581 48.0406 10.195C48.857 10.3713 49.6735 10.5525 50.4899 10.7386C51.3063 10.925 52.0546 11.1745 52.7352 11.4877C53.4153 11.8013 53.9495 12.2514 54.3386 12.8392C54.7273 13.4266 54.922 14.2103 54.922 15.1893C54.922 16.1293 54.7325 16.9276 54.3535 17.5837C53.9745 18.2401 53.4351 18.769 52.7352 19.17C52.0353 19.5718 51.2092 19.8602 50.2569 20.0365C49.3042 20.2128 48.2543 20.3006 47.1077 20.3006Z" fill="#F5E8CA"/>
<path d="M62.9806 20.3005C61.1534 20.3005 59.7395 19.8305 58.7384 18.8905C57.7369 17.9505 57.2366 16.4718 57.2366 14.4544V4.49512H61.4937V13.7492C61.4937 14.3175 61.5614 14.792 61.6977 15.1742C61.8336 15.5561 62.0376 15.8644 62.3101 16.0996C62.5823 16.3349 62.9076 16.5063 63.287 16.6135C63.666 16.7216 64.0982 16.7752 64.5844 16.7752C65.2843 16.7752 65.9206 16.6188 66.4943 16.3052C67.0672 15.992 67.5292 15.5561 67.8792 14.9979C68.2291 14.4398 68.4041 13.8081 68.4041 13.1028V4.49512H72.6903V19.9479H69.1915L68.8706 17.5974H68.6666C68.2001 18.2048 67.6752 18.7093 67.0922 19.1107C66.5092 19.5124 65.8625 19.811 65.1533 20.0064C64.4433 20.2022 63.7196 20.3001 62.981 20.3001L62.9806 20.3005Z" fill="#F5E8CA"/>
<path d="M75.8302 25.3242V4.49527H79.3L79.6789 6.72794H79.8829C80.4853 5.78791 81.2485 5.12209 82.1718 4.73048C83.0946 4.33887 84.1006 4.14307 85.1895 4.14307C86.6083 4.14307 87.838 4.42703 88.8778 4.99494C89.9176 5.56327 90.7191 6.44439 91.2831 7.63913C91.8468 8.83387 92.1286 10.3617 92.1286 12.2223C92.1286 14.0434 91.8415 15.5522 91.2686 16.7465C90.6953 17.9413 89.903 18.8325 88.8923 19.42C87.8815 20.0074 86.6958 20.3011 85.3351 20.3011C84.6545 20.3011 83.9986 20.2227 83.3672 20.0659C82.7354 19.9095 82.1573 19.6694 81.6323 19.3464C81.1074 19.0231 80.6599 18.6266 80.291 18.1566H80.116V25.325H75.8298L75.8302 25.3242ZM83.9651 16.8046C84.84 16.8046 85.5588 16.6429 86.1229 16.32C86.6865 15.9966 87.1042 15.5075 87.3768 14.851C87.6485 14.195 87.7852 13.4166 87.7852 12.5156V11.9278C87.7852 10.9877 87.6489 10.1948 87.3768 9.54803C87.1042 8.90171 86.6865 8.41707 86.1229 8.09371C85.5588 7.77034 84.8299 7.60907 83.9361 7.60907C83.0999 7.60907 82.3955 7.78538 81.8222 8.13799C81.2489 8.4906 80.8115 8.99515 80.5103 9.65122C80.2087 10.3077 80.0583 11.086 80.0583 11.9867V12.3978C80.0583 13.064 80.1458 13.6758 80.3208 14.234C80.4958 14.7921 80.7433 15.2621 81.0643 15.644C81.3852 16.0259 81.7831 16.3151 82.2597 16.5105C82.7358 16.7067 83.3043 16.8046 83.9655 16.8046H83.9651Z" fill="#F5E8CA"/>
<path d="M102.797 20.3007C100.95 20.3007 99.3808 20.0114 98.0886 19.4342C96.7956 18.8565 95.8095 17.9705 95.1293 16.7754C94.4488 15.581 94.1089 14.0629 94.1089 12.2219C94.1089 10.3808 94.4488 8.86312 95.1293 7.66797C95.8095 6.47364 96.786 5.58723 98.0596 5.00957C99.3324 4.4319 100.873 4.14307 102.681 4.14307C104.45 4.14307 105.951 4.42703 107.185 4.99494C108.42 5.56327 109.353 6.42977 109.985 7.59485C110.616 8.76034 110.932 10.224 110.932 11.9871V13.1916H98.5116C98.5503 14.0926 98.7349 14.8417 99.0655 15.4389C99.3957 16.0364 99.8767 16.4723 100.509 16.7461C101.14 17.0207 101.923 17.1576 102.856 17.1576C103.322 17.1576 103.769 17.104 104.197 16.996C104.624 16.8887 105.014 16.7222 105.364 16.4967C105.713 16.2716 106.005 15.9926 106.238 15.6594C106.471 15.3267 106.598 14.9449 106.617 14.5139H110.904C110.904 15.4149 110.704 16.2278 110.306 16.9525C109.907 17.6772 109.359 18.2845 108.659 18.7736C107.959 19.2636 107.113 19.6401 106.122 19.905C105.13 20.1695 104.023 20.3015 102.798 20.3015L102.797 20.3007ZM98.5696 10.5177H106.442C106.442 9.96971 106.35 9.48953 106.165 9.07802C105.98 8.6665 105.723 8.32445 105.393 8.04984C105.062 7.77603 104.673 7.57535 104.227 7.44779C103.779 7.32064 103.284 7.25686 102.74 7.25686C101.904 7.25686 101.189 7.37914 100.597 7.6241C100.004 7.86906 99.5421 8.2363 99.2119 8.72581C98.8813 9.21573 98.6676 9.8129 98.5704 10.5177H98.5696Z" fill="#F5E8CA"/>
<path d="M113.559 19.9479V4.49514H117.058L117.408 7.02193H117.612C117.806 6.49301 118.088 6.0039 118.457 5.55298C118.826 5.10287 119.278 4.74985 119.813 4.49514C120.347 4.24084 120.955 4.11328 121.635 4.11328C121.985 4.11328 122.306 4.14294 122.598 4.20143C122.889 4.26034 123.141 4.32899 123.356 4.40699V8.16751H121.665C121.003 8.16751 120.435 8.27029 119.959 8.47585C119.482 8.6814 119.084 8.97552 118.763 9.35738C118.443 9.73924 118.209 10.1849 118.064 10.6939C117.918 11.2033 117.845 11.781 117.845 12.4273V19.9479H113.559Z" fill="#F5E8CA"/>
<path d="M131.581 20.3005C130.512 20.3005 129.637 20.1339 128.957 19.8012C128.276 19.4685 127.776 18.9741 127.455 18.3177C127.134 17.662 126.974 16.8442 126.974 15.8648V7.72709H124.612V4.49549H127.149L127.966 0.000488281H131.26V4.49549H134.701V7.72709H131.26V15.2477C131.26 15.8351 131.382 16.2808 131.625 16.5842C131.867 16.8881 132.329 17.0396 133.01 17.0396H134.701V19.8305C134.448 19.9089 134.137 19.9816 133.768 20.0507C133.398 20.1189 133.019 20.1778 132.631 20.227C132.242 20.2757 131.892 20.3005 131.581 20.3005Z" fill="#F5E8CA"/>
<path d="M144.9 20.3007C143.053 20.3007 141.483 20.0114 140.191 19.4342C138.898 18.8565 137.912 17.9705 137.232 16.7754C136.551 15.581 136.211 14.0629 136.211 12.2219C136.211 10.3808 136.551 8.86312 137.232 7.66797C137.912 6.47364 138.888 5.58723 140.162 5.00957C141.435 4.4319 142.975 4.14307 144.783 4.14307C146.552 4.14307 148.053 4.42703 149.288 4.99494C150.522 5.56327 151.455 6.42977 152.087 7.59485C152.718 8.76034 153.034 10.224 153.034 11.9871V13.1916H140.614C140.653 14.0926 140.837 14.8417 141.168 15.4389C141.498 16.0364 141.979 16.4723 142.611 16.7461C143.243 17.0207 144.026 17.1576 144.958 17.1576C145.425 17.1576 145.872 17.104 146.299 16.996C146.727 16.8887 147.116 16.7222 147.466 16.4967C147.816 16.2716 148.107 15.9926 148.34 15.6594C148.574 15.3267 148.7 14.9449 148.72 14.5139H153.006C153.006 15.4149 152.806 16.2278 152.408 16.9525C152.01 17.6772 151.461 18.2845 150.761 18.7736C150.061 19.2636 149.216 19.6401 148.224 19.905C147.233 20.1695 146.125 20.3015 144.9 20.3015L144.9 20.3007ZM140.672 10.5177H148.544C148.544 9.96971 148.452 9.48953 148.267 9.07802C148.083 8.6665 147.825 8.32445 147.495 8.04984C147.164 7.77603 146.776 7.57535 146.329 7.44779C145.881 7.32064 145.386 7.25686 144.842 7.25686C144.006 7.25686 143.292 7.37914 142.699 7.6241C142.106 7.86906 141.644 8.2363 141.314 8.72581C140.984 9.21573 140.77 9.8129 140.673 10.5177H140.672Z" fill="#F5E8CA"/>
<path d="M160.589 20.3006C159.908 20.3006 159.228 20.232 158.548 20.095C157.867 19.9577 157.26 19.7331 156.726 19.4195C156.191 19.1063 155.758 18.6606 155.428 18.0826C155.098 17.5053 154.933 16.7655 154.933 15.8645C154.933 14.7092 155.204 13.774 155.749 13.059C156.293 12.3441 157.08 11.8058 158.111 11.4434C159.141 11.0811 160.361 10.841 161.77 10.7236C163.179 10.6058 164.729 10.5473 166.42 10.5473V9.63651C166.42 9.10759 166.308 8.67211 166.085 8.32924C165.861 7.98679 165.512 7.71745 165.035 7.52124C164.559 7.32584 163.923 7.22753 163.126 7.22753C162.426 7.22753 161.828 7.30106 161.332 7.44771C160.837 7.59477 160.458 7.7857 160.195 8.0205C159.933 8.25571 159.802 8.52992 159.802 8.84313V9.19574H155.603C155.583 9.07794 155.569 8.98044 155.559 8.90163C155.549 8.82363 155.545 8.72532 155.545 8.60792C155.545 7.7073 155.846 6.91879 156.449 6.24322C157.051 5.56725 157.931 5.04889 159.087 4.68612C160.243 4.32417 161.629 4.14258 163.242 4.14258C164.856 4.14258 166.211 4.31888 167.309 4.6715C168.407 5.02411 169.248 5.57253 169.831 6.31675C170.414 7.06138 170.706 8.01116 170.706 9.1665V15.9531C170.706 16.3057 170.798 16.575 170.983 16.7607C171.168 16.9471 171.396 17.0398 171.668 17.0398H172.892V19.8013C172.678 19.8996 172.338 20.002 171.872 20.1097C171.406 20.2169 170.861 20.2714 170.24 20.2714C169.52 20.2714 168.928 20.1783 168.461 19.9923C167.995 19.8066 167.63 19.5515 167.368 19.2285C167.105 18.9052 166.916 18.5286 166.799 18.0976H166.566C166.158 18.5286 165.657 18.9157 165.064 19.2582C164.471 19.6011 163.8 19.8602 163.053 20.0366C162.304 20.2129 161.483 20.3006 160.589 20.3006ZM161.871 17.1275C162.435 17.1275 162.984 17.054 163.519 16.9073C164.053 16.7603 164.534 16.5547 164.962 16.2902C165.389 16.0258 165.739 15.6931 166.012 15.2913C166.284 14.89 166.42 14.4541 166.42 13.984V13.1322C164.904 13.1322 163.611 13.2057 162.542 13.3523C161.473 13.4994 160.651 13.7444 160.078 14.0868C159.505 14.4297 159.218 14.9046 159.218 15.5115C159.218 15.9035 159.335 16.2167 159.568 16.4515C159.802 16.6867 160.122 16.8582 160.531 16.9654C160.939 17.0735 161.386 17.1271 161.872 17.1271L161.871 17.1275Z" fill="#F5E8CA"/>
<path d="M174.517 19.948V4.49519H178.016L178.366 6.81602H178.57C178.978 6.2091 179.469 5.70496 180.042 5.30319C180.615 4.90183 181.233 4.60812 181.893 4.42166C182.554 4.23601 183.235 4.14258 183.935 4.14258C185.12 4.14258 186.121 4.35301 186.938 4.77427C187.754 5.19554 188.376 5.87599 188.804 6.81602H189.008C189.436 6.2091 189.936 5.70496 190.51 5.30319C191.083 4.90183 191.715 4.60812 192.405 4.42166C193.094 4.23601 193.799 4.14258 194.519 4.14258C195.665 4.14258 196.642 4.33838 197.449 4.73C198.255 5.12201 198.882 5.74843 199.33 6.61005C199.777 7.47209 200 8.56892 200 9.90056V19.9476H195.685V10.6346C195.685 10.0866 195.622 9.6166 195.496 9.22459C195.369 8.83298 195.19 8.51936 194.956 8.28456C194.723 8.04975 194.426 7.8836 194.067 7.78529C193.707 7.68739 193.324 7.63824 192.915 7.63824C192.274 7.63824 191.686 7.79017 191.151 8.09363C190.617 8.39749 190.189 8.8281 189.869 9.38627C189.548 9.94444 189.388 10.5761 189.388 11.2814V19.948H185.13V10.635C185.13 10.087 185.062 9.61701 184.926 9.22499C184.79 8.83338 184.601 8.51977 184.358 8.28496C184.115 8.04975 183.823 7.88401 183.483 7.7857C183.143 7.6878 182.749 7.63864 182.302 7.63864C181.661 7.63864 181.072 7.79058 180.538 8.09403C180.004 8.3979 179.581 8.82851 179.27 9.38668C178.959 9.94484 178.803 10.5765 178.803 11.2818V19.9484H174.517L174.517 19.948Z" fill="#F5E8CA"/>
<path d="M28.8419 26.4083L28.9 26.3656H28.8286L28.8064 26.2974L28.7843 26.3656H28.7129L28.7705 26.4083L28.7484 26.4765L28.8064 26.4343L28.8641 26.4765L28.8419 26.4083Z" fill="white"/>
<path d="M32.7005 25.1456C32.7005 25.6128 32.6529 26.0686 32.5642 26.5098C32.5013 26.8173 32.4191 27.1187 32.3175 27.4088C32.2634 27.5615 32.205 27.7122 32.1397 27.8605C31.9381 28.3252 31.6869 28.7619 31.3946 29.1633C31.3752 29.1893 31.3579 29.2137 31.3406 29.2376C31.2281 29.3883 31.1087 29.5322 30.9854 29.6719C30.9834 29.6719 30.9834 29.6739 30.9834 29.6739C30.9616 29.6979 30.9378 29.7243 30.914 29.7503C30.4181 30.2914 29.8331 30.7521 29.1856 31.11C28.2285 31.636 27.1302 31.935 25.9626 31.935C24.795 31.935 23.6972 31.636 22.7396 31.11C22.3651 30.9028 22.0119 30.6627 21.687 30.3922C21.5309 30.2654 21.3838 30.1301 21.2406 29.9908C21.1628 29.9124 21.0846 29.8315 21.0088 29.7507C20.987 29.7247 20.9633 29.6983 20.9415 29.6743C20.9395 29.6743 20.9395 29.6723 20.9395 29.6723C20.8161 29.5326 20.6968 29.3888 20.5843 29.238C20.5669 29.2141 20.5476 29.1901 20.5302 29.1637C20.2355 28.7619 19.9844 28.3256 19.7832 27.8609C19.7203 27.7126 19.6618 27.5619 19.6078 27.4092C19.5058 27.1187 19.4215 26.8177 19.3586 26.5102C19.2699 26.0694 19.2244 25.6132 19.2244 25.146C19.2244 24.7272 19.2611 24.3169 19.3348 23.9196C19.3413 23.8737 19.3502 23.8278 19.3586 23.7823C19.4215 23.4748 19.5058 23.1733 19.6078 22.8833V22.8813C19.6618 22.7285 19.7203 22.5778 19.7832 22.4295H19.7852C19.9868 21.9668 20.2355 21.5305 20.5302 21.1267C20.5476 21.1028 20.5669 21.0788 20.5843 21.0548C20.6968 20.9041 20.8161 20.7579 20.9395 20.6185H20.9415C20.9633 20.5925 20.987 20.5661 21.0088 20.5422C21.0846 20.4593 21.1624 20.3784 21.2406 20.3021C21.3838 20.1603 21.5309 20.0271 21.687 19.8983C22.0119 19.6277 22.3647 19.3876 22.7396 19.1825C23.6383 18.6893 24.6632 18.3948 25.7501 18.3619C25.8215 18.3599 25.8909 18.3574 25.9622 18.3574C27.1298 18.3574 28.2277 18.6564 29.1852 19.1825C29.8327 19.5383 30.4177 19.9986 30.9136 20.5422C30.9374 20.5661 30.9612 20.5925 30.983 20.6185H30.985C31.1083 20.7583 31.2277 20.9045 31.3402 21.0548C31.3575 21.0788 31.3748 21.1028 31.3942 21.1267C31.6865 21.5305 31.9377 21.9668 32.1393 22.4295C32.2042 22.5778 32.2626 22.7285 32.3171 22.8813V22.8833C32.4187 23.1733 32.5013 23.4748 32.5638 23.7823C32.6525 24.2231 32.7001 24.6793 32.7001 25.1464L32.7005 25.1456Z" fill="#129D49"/>
<path d="M32.3034 25.1479C32.3034 25.5428 32.2679 25.9376 32.1925 26.3288L25.9602 30.3384L19.7279 26.3288C19.6525 25.9417 19.6211 25.5468 19.6211 25.1479C19.6211 24.753 19.6566 24.3659 19.7279 23.9751C19.7279 23.971 19.7279 23.9633 19.732 23.9593L25.9602 19.9497L32.1925 23.9593C32.2679 24.3501 32.3034 24.749 32.3034 25.1479Z" fill="#FBD800"/>
<path d="M29.4067 25.1454C29.4067 25.3039 29.3962 25.4603 29.3757 25.613C29.3749 25.6191 29.3741 25.6252 29.3732 25.6317C29.347 25.8202 29.3059 26.0038 29.2507 26.1813C29.2491 26.187 29.2471 26.1923 29.2454 26.198C28.8032 27.6003 27.5005 28.6163 25.9624 28.6163C24.0602 28.6163 22.5181 27.0625 22.5181 25.1458C22.5181 24.8505 22.5548 24.5641 22.6237 24.2903C22.6249 24.2846 22.6265 24.2789 22.6281 24.2737C22.6753 24.0904 22.737 23.9129 22.812 23.7423C22.8144 23.7366 22.8172 23.7309 22.8196 23.7252C23.3583 22.5171 24.563 21.6758 25.9628 21.6758C27.865 21.6758 29.4071 23.2296 29.4071 25.1463L29.4067 25.1454Z" fill="#233A75"/>
<path d="M29.3753 25.6128C29.3745 25.6189 29.3736 25.625 29.3728 25.6315C29.3466 25.82 29.3055 26.0036 29.2503 26.1811C29.2487 26.1868 29.2466 26.1921 29.245 26.1978L29.2398 26.1929C27.7972 24.8885 25.9342 24.1699 23.9937 24.1699C23.5361 24.1699 23.0773 24.2097 22.6301 24.2889L22.6233 24.2901C22.6245 24.2844 22.6261 24.2787 22.6277 24.2735C22.6749 24.0902 22.7366 23.9127 22.8116 23.7421C22.814 23.7364 22.8168 23.7307 22.8192 23.725C23.2059 23.6702 23.6014 23.6426 23.9945 23.6426C24.9984 23.6426 25.9797 23.8197 26.9123 24.1687C27.8101 24.5046 28.6391 24.9909 29.3761 25.6136L29.3753 25.6128Z" fill="white"/>
<path d="M27.1629 24.0069L27.2496 23.9431H27.1424L27.1093 23.8403L27.0762 23.9431H26.969L27.0557 24.0069L27.0226 24.1097L27.1093 24.0459L27.196 24.1097L27.1629 24.0069Z" fill="white"/>
<path d="M23.2357 24.5475L23.3224 24.4841H23.2151L23.1821 24.3813L23.149 24.4841H23.0417L23.1284 24.5475L23.0954 24.6503L23.1821 24.5869L23.2687 24.6503L23.2357 24.5475Z" fill="white"/>
<path d="M23.5401 26.0064L23.6272 25.9426H23.52L23.4865 25.8398L23.4534 25.9426H23.3462L23.4329 26.0064L23.3998 26.1092L23.4865 26.0454L23.5736 26.1092L23.5401 26.0064Z" fill="white"/>
<path d="M23.1102 26.3149L23.1823 26.2621H23.0932L23.0654 26.1768L23.038 26.2621H22.9485L23.0207 26.3149L22.9932 26.4006L23.0654 26.3478L23.1376 26.4006L23.1102 26.3149Z" fill="white"/>
<path d="M23.8517 25.7836L23.8945 25.7524H23.8416L23.8251 25.7012L23.8086 25.7524H23.7554L23.7985 25.7836L23.782 25.8348L23.8251 25.8031L23.8683 25.8348L23.8517 25.7836Z" fill="white"/>
<path d="M24.2481 26.348L24.3207 26.2952H24.2312L24.2037 26.2095L24.1759 26.2952H24.0864L24.159 26.348L24.1312 26.4337L24.2037 26.3809L24.2759 26.4337L24.2481 26.348Z" fill="white"/>
<path d="M24.6907 25.3211L24.7633 25.2683H24.6738L24.646 25.1826L24.6186 25.2683H24.5291L24.6012 25.3211L24.5738 25.4069L24.646 25.354L24.7185 25.4069L24.6907 25.3211Z" fill="white"/>
<path d="M26.003 25.7367L26.0752 25.6839H25.9856L25.9582 25.5981L25.9304 25.6839H25.8413L25.9135 25.7367L25.8857 25.8224L25.9582 25.7696L26.0304 25.8224L26.003 25.7367Z" fill="white"/>
<path d="M26.4014 26.0482L26.4736 25.9954H26.3841L26.3567 25.9097L26.3288 25.9954H26.2397L26.3119 26.0482L26.2841 26.1339L26.3567 26.0811L26.4288 26.1339L26.4014 26.0482Z" fill="white"/>
<path d="M26.012 26.7408L26.0986 26.677H25.9914L25.9583 26.5742L25.9253 26.677H25.8176L25.9047 26.7408L25.8712 26.8436L25.9583 26.7798L26.045 26.8436L26.012 26.7408Z" fill="white"/>
<path d="M25.6483 26.0434L25.7052 26.0016H25.635L25.6132 25.9346L25.5919 26.0016H25.5217L25.5782 26.0434L25.5568 26.1105L25.6132 26.069L25.6701 26.1105L25.6483 26.0434Z" fill="white"/>
<path d="M25.8103 26.2833L25.8519 26.2529H25.8007L25.7849 26.2041L25.7692 26.2529H25.718L25.7591 26.2833L25.7434 26.3321L25.7849 26.302L25.8261 26.3321L25.8103 26.2833Z" fill="white"/>
<path d="M24.1025 26.7026L24.163 26.6583H24.088L24.065 26.5864L24.042 26.6583H23.967L24.0275 26.7026L24.0045 26.7745L24.065 26.7302L24.1255 26.7745L24.1025 26.7026Z" fill="white"/>
<path d="M24.6295 27.024L24.7162 26.9602H24.6089L24.5759 26.8574L24.5428 26.9602H24.4355L24.5222 27.024L24.4892 27.1268L24.5759 27.063L24.6625 27.1268L24.6295 27.024Z" fill="white"/>
<path d="M26.7097 27.1021L26.7674 27.0599H26.696L26.6739 26.9912L26.6521 27.0599H26.5803L26.6384 27.1021L26.6162 27.1708L26.6739 27.1285L26.7319 27.1708L26.7097 27.1021Z" fill="white"/>
<path d="M27.2767 27.1872L27.3348 27.1449H27.2634L27.2412 27.0767L27.2191 27.1449H27.1477L27.2054 27.1872L27.1832 27.2558L27.2412 27.2136L27.2989 27.2558L27.2767 27.1872Z" fill="white"/>
<path d="M27.661 27.0694L27.7191 27.0271H27.6477L27.6255 26.9585L27.6033 27.0271H27.532L27.5896 27.0694L27.5675 27.1381L27.6255 27.0954L27.6832 27.1381L27.661 27.0694Z" fill="white"/>
<path d="M28.0174 27.1353L28.075 27.0927H28.0037L27.9815 27.0244L27.9593 27.0927H27.8879L27.9456 27.1353L27.9238 27.2036L27.9815 27.1613L28.0395 27.2036L28.0174 27.1353Z" fill="white"/>
<path d="M28.5137 26.6849L28.5859 26.6321H28.4964L28.469 26.5464L28.4412 26.6321H28.3521L28.4242 26.6849L28.3968 26.7706L28.469 26.7178L28.5411 26.7706L28.5137 26.6849Z" fill="white"/>
<path d="M28.3817 26.3809L28.4688 26.3171H28.3615L28.328 26.2144L28.295 26.3171H28.1877L28.2744 26.3809L28.2414 26.4837L28.328 26.4203L28.4151 26.4837L28.3817 26.3809Z" fill="white"/>
<path d="M28.3028 26.9637L28.375 26.9105H28.2854L28.258 26.8252L28.2302 26.9105H28.1411L28.2133 26.9637L28.1859 27.0494L28.258 26.9962L28.3302 27.0494L28.3028 26.9637Z" fill="white"/>
<path d="M27.6707 27.7584L27.7283 27.7161H27.657L27.6348 27.6475L27.6126 27.7161H27.5413L27.5989 27.7584L27.5771 27.827L27.6348 27.7844L27.6929 27.827L27.6707 27.7584Z" fill="white"/>
<path d="M27.6844 27.412L27.7565 27.3592H27.667L27.6396 27.2734L27.6118 27.3592H27.5227L27.5949 27.412L27.5671 27.4977L27.6396 27.4445L27.7118 27.4977L27.6844 27.412Z" fill="white"/>
<path d="M26.9905 27.4969L27.0631 27.4441H26.9736L26.9458 27.3584L26.9184 27.4441H26.8289L26.9014 27.4969L26.8736 27.5826L26.9458 27.5298L27.0183 27.5826L26.9905 27.4969Z" fill="white"/>
<path d="M26.9271 24.9903L26.9852 24.948H26.9134L26.8916 24.8794L26.8695 24.948H26.7981L26.8557 24.9903L26.8336 25.059L26.8916 25.0163L26.9493 25.059L26.9271 24.9903Z" fill="white"/>
<path d="M25.9737 27.8746L26.0052 27.8518H25.9665L25.9544 27.8145L25.9423 27.8518H25.9036L25.935 27.8746L25.9229 27.9115L25.9544 27.8888L25.9858 27.9115L25.9737 27.8746Z" fill="white"/>
<path d="M13.8873 0.0708008V13.0082H8.4444L10.1716 13.7289C15.652 16.2861 15.4121 25.3829 8.37465 25.3829H0.0704649V12.4456H6.07132C5.99189 12.4456 4.72753 12.1275 4.42919 11.9946C3.97239 11.7907 3.35593 11.5445 2.90478 11.2073C-1.84744 7.88921 -0.704437 0.0708008 5.86207 0.0708008H13.8873Z" fill="#F5E8CA"/>
<path d="M32.7289 4.00901V7.17115C32.7289 10.0103 29.8784 12.7142 27.2013 13.1335C26.7054 13.2119 26.2075 13.2241 25.7503 13.2241V16.1778C24.336 16.2107 22.941 16.5861 21.702 17.2645C21.2106 17.535 20.7425 17.8515 20.3115 18.2118C20.1079 18.3776 19.9107 18.5567 19.7245 18.742C19.6205 18.8443 19.5189 18.9516 19.4193 19.0584C19.3866 19.0934 19.3564 19.1263 19.3281 19.1608H19.3261C19.1637 19.3464 19.0056 19.5382 18.856 19.7348C18.8322 19.7677 18.8085 19.8002 18.7847 19.8331C18.3948 20.3677 18.0634 20.9462 17.7993 21.5527V21.5547C17.7215 21.7359 17.6477 21.9216 17.5828 22.1068C17.3187 21.6985 17.0869 21.2448 16.8897 20.7386C15.5512 17.2905 16.058 8.49101 15.9758 4.36406C15.9455 2.93452 16.0084 1.49847 15.9802 0.0693359H25.7507V4.01104L25.9608 4.0086H32.7293L32.7289 4.00901Z" fill="#F5E8CA"/>
<path d="M113.559 31.8545V23.4917H120.375C120.825 23.4917 121.231 23.5786 121.593 23.7529C121.955 23.9272 122.243 24.1681 122.456 24.476C122.669 24.7839 122.775 25.1447 122.775 25.5578C122.775 25.9226 122.711 26.2346 122.583 26.4938C122.454 26.753 122.279 26.9638 122.058 27.1259C121.837 27.288 121.594 27.4098 121.328 27.4903V27.539C121.642 27.604 121.924 27.7194 122.173 27.8855C122.422 28.0517 122.619 28.2768 122.764 28.5599C122.908 28.8439 122.981 29.1879 122.981 29.5934C122.981 30.0715 122.867 30.4785 122.637 30.8149C122.408 31.1513 122.1 31.4088 121.714 31.5868C121.328 31.7647 120.894 31.8541 120.412 31.8541H113.56L113.559 31.8545ZM116.008 26.7981H119.386C119.571 26.7981 119.727 26.7635 119.856 26.6945C119.985 26.6258 120.085 26.5303 120.158 26.4089C120.23 26.287 120.266 26.1412 120.266 25.971C120.266 25.7362 120.186 25.5477 120.025 25.4059C119.864 25.2641 119.663 25.1934 119.422 25.1934H116.008V26.7981ZM116.008 30.0918H119.591C119.848 30.0918 120.057 30.0211 120.218 29.8794C120.379 29.7376 120.459 29.5206 120.459 29.229C120.459 29.075 120.425 28.9373 120.356 28.8154C120.288 28.694 120.185 28.5989 120.049 28.5298C119.912 28.4612 119.748 28.4267 119.554 28.4267H116.008V30.0918Z" fill="#F5E8CA"/>
<path d="M130.617 31.8545V23.4917H137.517C138.121 23.4917 138.619 23.6176 139.013 23.8683C139.408 24.1197 139.705 24.45 139.906 24.8591C140.107 25.2682 140.207 25.7158 140.207 26.2021C140.207 26.729 140.082 27.2092 139.833 27.6426C139.584 28.0765 139.21 28.4185 138.712 28.67L140.401 31.8545H137.626L136.251 29.0709H133.066V31.8545H130.617ZM133.066 27.2478H136.709C137.007 27.2478 137.244 27.1588 137.421 26.9805C137.598 26.8021 137.687 26.5632 137.687 26.2634C137.687 26.0693 137.646 25.9011 137.566 25.7589C137.485 25.6167 137.373 25.5099 137.228 25.4368C137.083 25.3636 136.91 25.3271 136.709 25.3271H133.066V27.2478Z" fill="#F5E8CA"/>
<path d="M147.047 31.8545L151.125 23.4917H153.863L157.941 31.8545H155.275L154.648 30.5171H150.208L149.581 31.8545H147.047ZM151.029 28.7061H153.828L153.079 27.0044C153.047 26.9313 153.003 26.8241 152.947 26.6823C152.89 26.5405 152.83 26.3906 152.766 26.2326C152.701 26.0745 152.645 25.9287 152.597 25.7946C152.549 25.661 152.508 25.5619 152.476 25.4969H152.392C152.335 25.6427 152.267 25.8129 152.187 26.0075C152.106 26.2017 152.032 26.3886 151.963 26.5665C151.895 26.7448 151.833 26.8907 151.776 27.004L151.028 28.7057L151.029 28.7061Z" fill="#F5E8CA"/>
<path d="M169.607 32.0001C168.931 32.0001 168.3 31.9594 167.713 31.8782C167.126 31.7974 166.611 31.6556 166.169 31.4529C165.726 31.2506 165.38 30.9666 165.131 30.6022C164.882 30.2374 164.758 29.7755 164.758 29.2161V29.1556C164.758 29.1312 164.761 29.1069 164.77 29.0825H167.182C167.174 29.115 167.168 29.1475 167.164 29.1796C167.16 29.2121 167.158 29.2486 167.158 29.2888C167.158 29.5403 167.252 29.7365 167.442 29.8787C167.631 30.0205 167.894 30.1196 168.232 30.1765C168.57 30.2333 168.968 30.2614 169.426 30.2614C169.611 30.2614 169.802 30.2553 169.999 30.2431C170.196 30.2309 170.387 30.2106 170.572 30.1822C170.757 30.1537 170.924 30.1115 171.073 30.0546C171.222 29.9981 171.338 29.927 171.422 29.8417C171.507 29.7568 171.549 29.6496 171.549 29.5196C171.549 29.3494 171.459 29.2141 171.278 29.1125C171.097 29.0114 170.847 28.9301 170.529 28.8696C170.212 28.8087 169.858 28.7542 169.468 28.7055C169.078 28.6572 168.674 28.5982 168.256 28.5292C167.837 28.4605 167.431 28.3671 167.037 28.2493C166.643 28.1319 166.289 27.9759 165.976 27.7817C165.662 27.5871 165.412 27.3361 165.227 27.0277C165.042 26.7202 164.95 26.3473 164.95 25.9098C164.95 25.4641 165.06 25.0811 165.282 24.7609C165.503 24.4412 165.814 24.176 166.217 23.9651C166.619 23.7543 167.093 23.5983 167.64 23.4971C168.187 23.396 168.782 23.3452 169.426 23.3452C170.085 23.3452 170.682 23.398 171.217 23.5032C171.751 23.6085 172.21 23.7645 172.592 23.9712C172.974 24.1776 173.267 24.4372 173.473 24.7492C173.678 25.0612 173.78 25.428 173.78 25.8493V26.0195H171.404V25.9224C171.404 25.7522 171.331 25.6002 171.187 25.4666C171.042 25.3329 170.831 25.2277 170.553 25.1505C170.275 25.0733 169.94 25.0352 169.546 25.0352C169.071 25.0352 168.681 25.0656 168.376 25.1262C168.07 25.1871 167.845 25.2679 167.7 25.3691C167.555 25.4706 167.483 25.586 167.483 25.7156C167.483 25.8781 167.575 26.0052 167.76 26.0987C167.945 26.1917 168.195 26.2669 168.508 26.3237C168.822 26.3806 169.174 26.433 169.564 26.4818C169.954 26.5301 170.36 26.587 170.782 26.652C171.205 26.717 171.61 26.8059 172.001 26.9193C172.391 27.033 172.743 27.185 173.057 27.3751C173.37 27.5652 173.619 27.8085 173.804 28.1043C173.989 28.4 174.082 28.7628 174.082 29.1922C174.082 29.8649 173.889 30.4076 173.503 30.8208C173.117 31.2339 172.588 31.5341 171.917 31.7202C171.245 31.9066 170.475 32.0001 169.607 32.0001Z" fill="#F5E8CA"/>
<path d="M181.67 31.8545V23.4917H184.119V31.8545H181.67Z" fill="#F5E8CA"/>
<path d="M192.202 31.8545V23.4917H194.651V29.8611H199.983V31.8545H192.202Z" fill="#F5E8CA"/>
</g>
<defs>
<clipPath id="clip0_1252_956">
<rect width="200" height="32" fill="white"/>
</clipPath>
</defs>
</svg>